<svg xmlns="http://www.w3.org/2000/svg" width="70.06" height="82" viewBox="0 0 70.06 82"><defs><clipPath id="a"><path fill="none" d="M0 0h70.06v82H0z"/></clipPath></defs><g clip-path="url(#a)"><path d="M48.986-.001c1.834.068 2.38 1.228 2.569 2.874l-.005 10c.77 3.737 6.243 3.732 6.816.025l.046-9.7c.175-1.591.543-3.087 2.421-3.2h1.441c.158.2.505.188.767.358a15.35 15.35 0 0 1 6.969 11.632 14.75 14.75 0 0 1-3.287 10.578 14.1 14.1 0 0 0-3.579 7.755l-.09 6.164a5.86 5.86 0 0 1 4.062 1.43 5 5 0 0 1 1.5 4.622 5.37 5.37 0 0 1-2.816 3.645 4.914 4.914 0 0 1-1.223 7.07 5.05 5.05 0 0 1 1.387 4.081 4.63 4.63 0 0 1-3.093 4.076 4.81 4.81 0 0 1 .2 5.522l-.046 7.3a8.043 8.043 0 0 1-16.081-.311l-.044-5.08a29 29 0 0 1-4.525-1.241L37 65.46a3.9 3.9 0 0 0-1.313-.276l-4.952-.035a4.72 4.72 0 0 1-5.476 3.844 5.02 5.02 0 0 1-3.374-2.372L3.41 66.513a3.73 3.73 0 0 1-3.35-3.655L0 42.327a4.13 4.13 0 0 1 3.265-3.74l18.249-.022a4.708 4.708 0 0 1 9.251 1.116c3.666.213 5.118-.647 7.136-3.549a11.73 11.73 0 0 1 9.017-5.3 13.82 13.82 0 0 0-3.323-7.833 15.172 15.172 0 0 1 3.95-23Z"/><path fill="#da636e" d="m22.593 56.991.319.18a26 26 0 0 1-.005 2.825.52.52 0 0 1-.322.224 1.21 1.21 0 0 0-1.207 1.239l-.008 2.675-17.456-.013a1.4 1.4 0 0 1-1.392-1.348l-.008-2.127.139-.322 4.957-.066c2.533-.371 3.827-1.965 4.168-4.43l-.014-14.37-8.071.017-.2-.322c.055-.117.145-.175.352-.175l17.534.027-.005 14.7a1.2 1.2 0 0 0 1.219 1.286"/><path fill="#df7e83" d="m3.5 41.153 8.621-.016-.011 14.4A5 5 0 0 1 7.188 60.6l-4.673.044-.009-18.213c.055-.6.45-1.278.994-1.278"/><path fill="#d74a54" d="m22.584 60.221.008-3.225a1.184 1.184 0 0 0 1.185-1.2l.011-15.931a2.278 2.278 0 1 1 4.556.011l-.005 24.462a2.283 2.283 0 1 1-4.562-.142l.008-2.7a1.24 1.24 0 0 0-1.2-1.28"/><path fill="#fedccd" d="M47.929 37.774a3.6 3.6 0 0 0 2.694 1.234l5.49.027c.642.085.838.677 1.013 1.231a4.167 4.167 0 0 1-3.573 5.416c2.885 2.219 2.263 5.954-.955 7.482a4.144 4.144 0 0 1-.792 7.5q-.979.037-.745.609a4.01 4.01 0 0 1 1.263 3.929c-.15.647-.426 1.54-1.155 1.605a22.5 22.5 0 0 1-8.285-1.618l-4-1.619a8.6 8.6 0 0 0-3.177-.808l-4.957-.019V42.114l2.391-.03a7.82 7.82 0 0 0 5.933-3.482l.764-.876.478-.317 4.119.025 2.948.019Z"/><path fill="#fecabd" d="M51.17 66.802a3.75 3.75 0 0 0-.311-5.282.71.71 0 0 1-.156-.587.51.51 0 0 1 .382-.426 3.68 3.68 0 0 0 3.208-3.341 4.21 4.21 0 0 0-2.57-4.15 4.25 4.25 0 0 0 3.251-2.973c.682-2.986-2.026-4.138-1.96-4.482s2.6-.063 3.65-2.457a3.93 3.93 0 0 0-.554-4.067l7.925.041a2.45 2.45 0 0 1 2.222 2.6 2.467 2.467 0 0 1-2.255 2.479l-1.731.025a1.22 1.22 0 0 0-1.269 1.067 1.194 1.194 0 0 0 .977 1.324 2.6 2.6 0 1 1-.505 5.173 1.29 1.29 0 0 0-1.5 1.015 1.2 1.2 0 0 0 1.16 1.4 2.62 2.62 0 1 1-.625 5.195 1.35 1.35 0 0 0-1.537.98 1.334 1.334 0 0 0 .778 1.594 2.579 2.579 0 0 1-.838 4.971l-6.562-.014Zm-3.24-29.029-8.091-.052a9.25 9.25 0 0 1 7.2-4.441l-.005 1.785a4.02 4.02 0 0 0 .9 2.708"/><path fill="#c8dffc" d="m49.426 69.172 2.086.068.025 4.409a3.46 3.46 0 0 0 6.92 0v-4.335a7.7 7.7 0 0 0 2.1-.308v4.966a5.563 5.563 0 1 1-11.124-.158Zm7.496-36.195a22 22 0 0 0-.049-3.336 1.35 1.35 0 0 0 1.13-.2c.4-.276.42-.732.467-1.264a3.54 3.54 0 0 0-3.172-3.98 3.42 3.42 0 0 0-3.743 3.33l-.035 9.014a2.22 2.22 0 0 1-1.531-.161 1.52 1.52 0 0 1-.562-1.482c.251-5.607-.576-9.505-4.138-13.728a12.61 12.61 0 0 1 3.383-18.944l.071 9.778a6.32 6.32 0 0 0 6.087 6.445 6.194 6.194 0 0 0 6.393-6.063l.091-10.133a12.4 12.4 0 0 1 6.109 8.784 12.92 12.92 0 0 1-3.314 10.95 15.77 15.77 0 0 0-3.535 9.694l-.022 4.9-2.066.008-.03-2.492a1.17 1.17 0 0 0-.459-.928 1.2 1.2 0 0 0-1.076-.188"/><path fill="#e9f1fe" d="M56.874 29.648c.1.044.385.158.388.306l.022 2.4a.574.574 0 0 1-.36.628 1.18 1.18 0 0 0-.86 1.125l-.016 2.5-2.113-.022.025-9.033a1.027 1.027 0 0 1 1.31-.923c1.455.385.1 2.386 1.605 3.022m-.821 44a1.057 1.057 0 0 1-2.113 0v-4.376l2.118.022Z"/></g></svg>